<svg width="16" height="11" viewBox="0 0 16 11" fill="none" xmlns="http://www.w3.org/2000/svg">
<path d="M15.7546 4.49047C13.8612 2.20244 10.9951 0 8.00004 0C5.00444 0 2.13764 2.20398 0.245476 4.49047C-0.0818255 4.88582 -0.0818255 5.45976 0.245476 5.8551C0.721188 6.42996 1.71849 7.53965 3.05048 8.50924C6.40507 10.9513 9.58762 10.9567 12.9496 8.50924C14.2816 7.53965 15.2789 6.42996 15.7546 5.8551C16.081 5.46053 16.0826 4.88712 15.7546 4.49047ZM8.00004 1.72426C9.90166 1.72426 11.4486 3.27117 11.4486 5.17279C11.4486 7.0744 9.90166 8.62132 8.00004 8.62132C6.09842 8.62132 4.55151 7.0744 4.55151 5.17279C4.55151 3.27117 6.09842 1.72426 8.00004 1.72426Z" fill="#9298B4"/>
</svg>
